<svg width="83" height="20" viewBox="0 0 83 20" fill="none" xmlns="http://www.w3.org/2000/svg">
<path d="M49.96 9.176C49.932 9.064 49.918 8.896 49.918 8.742C49.918 7.622 50.59 6.768 51.822 6.768C53.026 6.768 53.67 7.594 53.67 8.49C53.67 9.288 53.236 9.932 52.354 10.492L50.73 11.542C49.274 12.48 48.714 13.6 48.686 15H54.93V13.936H50.114C50.226 13.278 50.73 12.802 51.276 12.452L53.138 11.262C54.174 10.604 54.846 9.666 54.846 8.476C54.846 6.978 53.726 5.732 51.85 5.732C49.904 5.732 48.77 7.076 48.77 8.63C48.77 8.756 48.784 8.91 48.812 9.036L49.96 9.176ZM62.2499 5.928H55.6839V6.992H60.9339C60.4159 7.468 57.5319 10.016 57.0979 15H58.3019C58.7499 10.422 61.0599 8.098 62.2499 7.048V5.928ZM69.0897 5.928H62.5237V6.992H67.7737C67.2557 7.468 64.3717 10.016 63.9377 15H65.1417C65.5897 10.422 67.8997 8.098 69.0897 7.048V5.928ZM73.2135 14.16C72.5415 14.16 72.0515 13.908 71.6875 13.516C71.0855 12.886 70.8335 11.836 70.8335 10.464C70.8335 9.092 71.0855 8.042 71.6875 7.412C72.0515 7.02 72.5415 6.768 73.2135 6.768C73.8855 6.768 74.3755 7.02 74.7395 7.412C75.3415 8.042 75.5935 9.092 75.5935 10.464C75.5935 11.836 75.3415 12.886 74.7395 13.516C74.3755 13.908 73.8855 14.16 73.2135 14.16ZM73.2135 15.196C74.4455 15.196 75.3275 14.65 75.9015 13.81C76.5315 12.9 76.7415 11.696 76.7415 10.464C76.7415 9.232 76.5315 8.028 75.9015 7.118C75.3275 6.278 74.4455 5.732 73.2135 5.732C71.9815 5.732 71.0995 6.278 70.5255 7.118C69.8955 8.028 69.6855 9.232 69.6855 10.464C69.6855 11.696 69.8955 12.9 70.5255 13.81C71.0995 14.65 71.9815 15.196 73.2135 15.196ZM80.8197 15V5.928H79.7837C79.5597 6.908 78.7057 7.65 77.4457 7.706V8.378H79.6717V15H80.8197Z" fill="#151417"/>
<path fill-rule="evenodd" clip-rule="evenodd" d="M25.5948 5.78638C26.9719 4.76552 29.0926 4.83544 30.6074 5.4927L31.2409 5.84229C31.2823 5.74129 31.2789 5.615 31.2755 5.49385C31.2733 5.41369 31.2712 5.33578 31.2822 5.26896C31.9019 5.24102 32.6593 5.24102 33.279 5.25497C33.2831 5.60138 33.2897 5.93409 33.2962 6.2609C33.3114 7.02907 33.3259 7.76467 33.3066 8.56911C32.8068 8.59028 32.2833 8.58744 31.7958 8.5848C31.6385 8.58395 31.4851 8.58312 31.3373 8.58312C30.7727 7.67417 29.7812 7.33858 28.8172 7.19874C28.7417 7.19642 28.662 7.19062 28.5804 7.18468C28.1709 7.15487 27.7134 7.12156 27.4951 7.50634C27.4676 7.66017 27.5365 7.78602 27.6466 7.88393L27.8946 8.00977L31.2272 9.00261C32.3426 9.29629 33.4443 10.3731 33.5957 11.5617C33.7473 12.7781 33.1964 13.9109 32.1636 14.4982C30.7451 15.2533 28.8998 15.1134 27.4676 14.4982C27.3898 14.4564 27.312 14.413 27.2342 14.3696C27.0779 14.2825 26.9216 14.1953 26.7653 14.1207L26.7377 14.7918L24.6721 14.8058C24.6308 13.6871 24.6446 12.3866 24.6721 11.254L26.5312 11.2399C26.5863 11.3099 26.6311 11.3869 26.6759 11.4638C26.7206 11.5407 26.7653 11.6176 26.8204 11.6874C27.7568 12.6943 29.1615 12.974 30.4559 12.6104L30.4605 12.6078C30.5562 12.5523 30.6763 12.4826 30.6763 12.3586C30.7038 12.2049 30.5386 12.079 30.4146 12.0231C29.8369 11.821 29.2502 11.6432 28.6643 11.4657C27.9933 11.2624 27.3232 11.0593 26.6689 10.8204C25.7738 10.4708 24.8373 9.72973 24.6583 8.72294C24.4242 7.66017 24.6996 6.45756 25.5948 5.78638ZM35.923 5.74439C37.7684 4.68167 40.4951 4.76553 42.2853 5.94021C42.905 6.37366 43.4146 6.97498 43.6624 7.64617C44.2821 9.38013 44.2133 11.6874 43.1941 13.2256C42.7534 13.813 42.1613 14.2464 41.5416 14.5122L41.4831 14.5384C41.2766 14.652 40.9753 14.7307 40.8806 14.7499C38.8838 15.3232 36.6392 15.0155 35.0968 13.6172C33.7748 12.2887 33.6784 10.1772 34.0502 8.40128C34.2568 7.32458 34.9178 6.27581 35.923 5.74439ZM18.0345 5.11512L18.8882 5.10118L24.0799 5.11512C24.1212 5.84229 24.1075 6.69532 24.0937 7.49235L22.7304 7.50634L22.7028 7.54834L22.689 12.4565C22.9464 12.4892 23.2272 12.4885 23.5068 12.4879C23.706 12.4874 23.9046 12.4869 24.0937 12.4985V14.8058H18.0207C17.9931 14.0367 17.9931 13.2816 18.0207 12.4985L19.384 12.4706L19.3978 12.2748V7.52034C19.0938 7.4923 18.796 7.48925 18.492 7.48613C18.3415 7.48459 18.1895 7.48303 18.0345 7.47842C18.0207 6.72324 18.0207 5.85629 18.0345 5.11512ZM40.6909 8.80911C40.6649 8.48917 40.6382 8.16043 40.461 7.89584C40.1051 7.43354 39.5416 7.34684 38.9633 7.34684C38.4146 7.39022 37.8065 7.53468 37.5841 8.09807C37.3226 8.94283 37.3678 9.91205 37.4111 10.8441C37.4145 10.9161 37.4178 10.988 37.421 11.0595L37.4225 11.0721C37.4814 11.574 37.5434 12.1023 37.9994 12.4175C38.548 12.7209 39.3488 12.7931 39.942 12.5331C40.3127 12.403 40.55 12.0419 40.6241 11.6952C40.7304 11.0945 40.7224 10.4196 40.7148 9.78227C40.7119 9.53054 40.7089 9.28467 40.7132 9.05153C40.7041 8.97211 40.6975 8.8909 40.6909 8.80911Z" fill="#151417"/>
<circle cx="7" cy="10" r="7" fill="#151417"/>
<path d="M5.49751 12.4362L3.6555 10.5239C3.44817 10.3087 3.44817 9.96144 3.6555 9.74619C3.86108 9.53276 4.19568 9.53145 4.40284 9.74325C4.40362 9.74405 4.4044 9.74485 4.40518 9.74565L5.93749 11.332L9.59424 7.53572C9.79954 7.32258 10.1337 7.32126 10.3406 7.53278C10.342 7.53421 10.3434 7.53564 10.3447 7.53709C10.5523 7.75408 10.5517 8.10274 10.3434 8.31897L6.37747 12.4362C6.13633 12.6866 5.74385 12.6881 5.50086 12.4397C5.49974 12.4385 5.49862 12.4374 5.49751 12.4362Z" fill="white"/>
</svg>
